<svg width="140" height="41" viewBox="0 0 140 41" fill="none" xmlns="http://www.w3.org/2000/svg">
<path d="M25.2156 35.4314C18.9556 38.2714 9.84563 39.5314 4.05563 36.0714C0.56563 33.9914 -0.834367 30.0314 0.495633 26.2014C1.14563 24.3314 2.38563 22.7614 3.91563 21.4814C2.60563 24.9514 3.35562 28.8414 6.23562 31.2314C8.13562 32.8014 10.5956 33.3814 13.0856 33.4514C18.9156 33.6214 24.5056 32.1114 29.6456 29.4314L36.4756 25.4214C40.1256 23.2814 43.6556 21.1214 47.7356 19.9014C50.2356 19.1514 52.7256 18.7314 55.2656 18.9714C59.5356 19.3914 62.3656 22.7514 62.0756 27.0914C61.8456 30.6614 59.7956 33.8814 56.8456 35.9214C55.6256 36.7614 54.1856 36.8714 52.6856 36.3114C55.8356 34.9714 58.1856 32.0614 58.3856 28.4714C58.5356 25.8614 57.0156 23.5914 54.8056 22.3114C50.3156 19.7114 43.6756 22.4514 39.6556 25.4814L33.6256 30.0314C30.9556 32.0414 28.3956 33.9814 25.2156 35.4214V35.4314Z" fill="#AD2829"/>
<path d="M128.756 36.0215C127.336 35.1515 127.066 37.1315 125.866 36.3715L125.426 29.4515C125.476 29.0615 126.726 28.7215 126.876 29.0815C127.466 30.5715 127.936 32.1515 128.796 33.4415C130.266 35.6315 133.216 36.4015 135.366 34.8615C136.226 34.2515 136.566 33.0115 136.446 32.0015C136.346 31.1415 135.726 29.9215 134.806 29.3715L128.956 25.8515C125.726 23.9015 124.776 19.3815 127.496 16.6715C129.956 14.2115 133.636 14.2915 136.656 15.7815C136.866 15.1415 138.506 14.7915 138.556 15.5115L138.936 20.8415C138.956 21.1615 138.016 21.5215 137.766 21.3515C137.056 20.8615 137.066 18.0615 134.856 16.8815C133.466 16.1415 131.706 16.0315 130.416 16.9415C129.506 17.5815 129.186 18.7815 129.366 19.9215C129.486 20.6915 130.206 21.7215 131.096 22.2815L137.266 26.1715C139.056 27.3015 140.026 29.2815 139.946 31.2115C139.866 33.1415 138.936 35.0915 137.116 36.1515C134.546 37.6515 131.376 37.6515 128.746 36.0315L128.756 36.0215Z" fill="#AD2829"/>
<path d="M98.9764 29.5616L92.2164 29.5216L90.4764 34.6816C91.2464 35.5416 92.2963 35.0416 93.0363 35.6416C93.2363 35.8116 92.8964 36.7116 92.6364 36.7116L86.1964 36.7316C85.8464 36.5016 85.8764 35.4116 86.2164 35.3316C86.8864 35.2716 88.1664 35.2116 88.4064 34.5316L95.1463 14.9616L97.9164 14.8916L104.726 34.6816C105.196 35.0916 106.126 35.3016 106.826 35.3416C107.186 35.3616 107.246 36.7016 106.876 36.7116L98.7264 36.7416C98.4664 36.7216 98.2064 35.7516 98.4064 35.5916C99.1264 35.0116 100.226 35.6316 100.596 34.5816L98.9863 29.5616H98.9764ZM98.4464 27.9916L95.6164 19.3716L92.7063 27.9816L98.4563 28.0016L98.4464 27.9916Z" fill="#AD2829"/>
<path d="M111.426 36.0417C110.816 35.6717 110.226 35.7317 109.796 36.2917C109.566 36.5917 108.576 36.5717 108.546 36.2317L108.166 30.0517C108.146 29.6917 108.296 29.1917 108.526 29.0317C108.776 28.8617 109.536 28.9717 109.646 29.2417L111.216 32.9817C112.216 35.3617 115.306 36.3417 117.676 35.2017C119.596 34.2817 119.816 31.6417 118.396 30.1317C117.476 29.1617 116.296 28.5517 115.156 27.8517L111.016 25.2817C108.126 23.0217 107.856 18.5617 110.726 16.2517C113.206 14.2517 116.556 14.4417 119.266 15.7117L120.266 15.0717C120.516 14.9117 121.266 15.3117 121.396 15.5917L121.626 21.0017C121.466 21.3017 120.466 21.4317 120.256 21.1217C119.906 20.1317 119.456 18.8017 118.826 17.9517C117.556 16.2517 115.076 15.7917 113.316 16.8917C112.316 17.5217 111.986 18.7517 112.176 19.8617C112.316 20.7417 113.016 21.7617 113.956 22.3417L119.596 25.8217C121.496 26.9917 122.796 28.8817 122.736 31.0017C122.676 33.1217 121.646 35.2117 119.686 36.2617C117.106 37.6517 114.026 37.6217 111.426 36.0417Z" fill="#AD2829"/>
<path d="M84.4858 29.5915L85.7158 29.6615L85.1358 36.7115L69.5458 36.7515C69.3858 36.5415 69.1858 36.0915 69.1758 35.8615C69.1358 35.1015 71.5958 35.3315 71.5958 34.5115L71.6158 18.1315C71.6158 17.3015 70.9158 16.9115 70.1958 16.7915L69.2958 16.6415C69.0558 16.6015 69.1858 15.8615 69.2558 15.3615L77.9458 15.3315C79.1658 17.7015 75.4558 15.8015 75.4658 18.3815L75.4858 34.9615L80.4558 35.0215C80.9358 35.0215 82.0358 34.6415 82.2458 34.2115L84.4858 29.6115V29.5915Z" fill="#AD2829"/>
<path d="M45.9359 29.9215C47.5959 27.0615 50.4259 25.1815 53.6259 24.7415C51.5059 26.2715 49.6859 27.7615 48.8559 30.1015C47.9959 32.4515 48.3959 35.2515 50.5859 36.6715C51.4759 37.2515 52.8359 37.1815 53.9559 37.2415C58.0859 37.4415 62.0459 35.3415 63.7659 31.6115C64.8559 29.2415 64.3959 26.6215 62.5859 24.9215C62.3059 23.1415 61.5859 21.8915 60.4359 20.5015L62.9459 20.9215C65.4459 21.7715 67.2259 23.7315 67.5059 26.4415C67.8359 29.6715 66.4459 32.7115 63.9659 34.9415C59.0559 39.3515 49.4959 41.8115 46.1159 37.0315C44.6659 34.9915 44.6159 32.2015 45.9359 29.9315V29.9215Z" fill="#AD2829"/>
<path d="M51.7956 18.2814L52.0856 12.9614C46.8256 14.5114 42.5056 14.6414 38.2256 11.2014C40.6756 11.5514 42.8756 11.9014 45.1656 11.2614L51.5656 9.48138L59.7756 6.67138C62.6556 5.68138 67.7456 5.71138 69.4856 8.60138C66.4256 7.99138 63.7256 8.13138 61.0556 9.34138L56.4856 11.4314L57.6156 18.8814C55.6156 18.3014 53.9156 18.1114 51.8056 18.2814H51.7956Z" fill="#AD2829"/>
<path d="M45.8962 37.9216L48.6762 39.6916C46.3062 40.3616 43.6862 40.5416 41.2562 39.7316C38.1062 38.6816 36.2262 35.8916 36.6462 32.5116C37.2262 27.9116 41.4562 24.4616 46.0862 23.4316C44.1362 25.0216 42.2662 26.4216 41.1562 28.6216C40.0462 30.8216 40.0362 33.1616 41.1962 35.1816C42.1862 36.9216 43.9662 37.4916 45.8962 37.9116V37.9216Z" fill="#AD2829"/>
<path d="M54.806 1.4113C56.376 4.3613 54.866 8.2813 52.586 8.3913C51.936 8.4213 50.976 7.9613 50.516 7.3613C49.196 5.6613 49.096 3.2313 50.176 1.4013C50.686 0.541301 51.5461 0.0312995 52.3861 0.00129952C53.3461 -0.0287005 54.306 0.461299 54.806 1.4113Z" fill="#AD2829"/>
</svg>
